<mxfile host="app.diagrams.net" modified="2023-04-24T14:56:55.017Z" agent="Mozilla/5.0 (Macintosh; Intel Mac OS X 10_15_7) AppleWebKit/537.36 (KHTML, like Gecko) Chrome/112.0.0.0 Safari/537.36" version="21.2.1" etag="6uM5Z1PHaGwGjSL4U-3C" type="github">
  <diagram name="페이지-1" id="9oatzeltDpTZMcbJ5VR2">
    <mxGraphModel>
      <root>
        <mxCell id="0" />
        <mxCell id="1" parent="0" />
      </root>
    </mxGraphModel>
  </diagram>
</mxfile>
